<?xml version="1.0" encoding="UTF-8"?>
<svg xmlns="http://www.w3.org/2000/svg" xmlns:xlink="http://www.w3.org/1999/xlink" width="70px" height="70px" viewBox="0 0 70 70" version="1.1">
<g id="surface1">
<path style=" stroke:none;fill-rule:nonzero;fill:rgb(56.078431%,56.078431%,56.078431%);fill-opacity:1;" d="M 25.652344 9.785156 C 24.464844 10.207031 23.425781 11.179688 23.03125 12.234375 L 22.816406 12.785156 L 21.167969 13.097656 C 18.355469 13.613281 16.207031 14.3125 14.046875 15.4375 C 7.101562 19.03125 2.679688 26.152344 1.195312 36.152344 C 0.804688 38.828125 0.601562 42.960938 0.75 45.109375 C 0.910156 47.21875 0.855469 47.136719 2.832031 48.164062 C 4.777344 49.179688 6.898438 49.703125 9.855469 49.933594 C 10.964844 50.027344 11.03125 50.042969 11.289062 50.449219 C 11.816406 51.246094 13.855469 53.449219 14.9375 54.367188 C 18.9375 57.785156 23.289062 59.757812 27.992188 60.257812 C 30.707031 60.554688 32.195312 60.367188 34.519531 59.449219 C 36.746094 58.554688 39.261719 57 41.476562 55.136719 C 43.652344 53.300781 49.085938 50.394531 50.300781 50.40625 C 50.707031 50.421875 52.816406 51.070312 54.71875 51.796875 C 57.894531 53 62.976562 53.40625 66.882812 52.773438 C 69.003906 52.421875 69.449219 52.175781 69.261719 51.421875 C 69.164062 51.070312 67.867188 49.90625 66.570312 49.027344 C 65.691406 48.433594 56.773438 41.949219 56.558594 41.746094 C 56.488281 41.691406 56.355469 40.988281 56.261719 40.179688 C 55.355469 33.03125 52.839844 26.691406 49.070312 22.015625 C 47.9375 20.609375 45.839844 18.636719 44.300781 17.53125 C 41.167969 15.285156 36.585938 13.53125 32.425781 12.976562 C 30.707031 12.746094 30.695312 12.746094 30.601562 12.339844 C 30.382812 11.382812 28.976562 10.042969 27.828125 9.734375 C 27.179688 9.558594 26.234375 9.570312 25.652344 9.785156 Z M 27.9375 11.542969 C 28.328125 11.746094 28.992188 12.394531 28.898438 12.488281 C 28.871094 12.515625 27.910156 12.570312 26.789062 12.597656 C 25.316406 12.636719 24.71875 12.609375 24.71875 12.503906 C 24.71875 12.328125 25.328125 11.734375 25.734375 11.515625 C 26.125 11.300781 27.503906 11.3125 27.9375 11.542969 Z M 31.722656 14.90625 C 34.316406 15.921875 37.058594 17.503906 39.074219 19.152344 C 40.355469 20.207031 42.761719 22.734375 43.679688 24.015625 C 46.398438 27.828125 48.179688 32.421875 48.976562 37.691406 C 49.085938 38.449219 49.179688 39.273438 49.179688 39.527344 L 49.179688 40.003906 L 47.53125 40.003906 C 42.453125 40.003906 35.84375 41.597656 28.816406 44.515625 C 27.492188 45.070312 25.707031 45.730469 24.855469 46.003906 C 22.953125 46.597656 19.628906 47.40625 18.695312 47.515625 L 18.003906 47.597656 L 17.707031 46.515625 C 16.679688 42.691406 16.410156 40.609375 16.425781 36.421875 C 16.425781 33.476562 16.476562 32.597656 16.722656 30.960938 C 17.734375 24.460938 20.046875 19.476562 23.804688 15.636719 L 25.128906 14.285156 L 27.789062 14.355469 L 30.464844 14.421875 Z M 22.140625 14.828125 C 22.03125 14.960938 21.625 15.460938 21.222656 15.933594 C 15.207031 23.109375 13.03125 35.433594 15.855469 46.21875 C 16.03125 46.921875 16.234375 47.597656 16.273438 47.71875 C 16.398438 48.027344 15.910156 48.082031 12.492188 48.191406 C 8.398438 48.3125 6.382812 47.988281 3.9375 46.8125 C 3.019531 46.367188 2.652344 46.109375 2.558594 45.867188 C 2.382812 45.421875 2.382812 41.191406 2.558594 39.191406 C 3.613281 26.921875 8.964844 18.734375 17.949219 15.679688 C 18.976562 15.328125 21.613281 14.664062 22.207031 14.609375 C 22.277344 14.597656 22.234375 14.707031 22.140625 14.828125 Z M 38.773438 16.433594 C 43.207031 18.230469 47.273438 21.773438 49.910156 26.097656 C 51.464844 28.679688 52.707031 31.757812 53.570312 35.207031 C 54.097656 37.3125 54.691406 40.625 54.570312 40.730469 C 54.542969 40.757812 54.085938 40.679688 53.546875 40.542969 C 53.003906 40.394531 52.207031 40.246094 51.773438 40.191406 L 50.976562 40.109375 L 50.816406 38.664062 C 50.558594 36.40625 49.910156 33.394531 49.234375 31.382812 C 48.519531 29.207031 46.84375 25.707031 45.695312 23.988281 C 43.898438 21.300781 41.289062 18.542969 38.992188 16.921875 C 38.328125 16.460938 37.816406 16.082031 37.855469 16.082031 C 37.898438 16.082031 38.300781 16.246094 38.773438 16.433594 Z M 50.464844 41.757812 C 52.179688 41.921875 53.910156 42.300781 54.746094 42.703125 C 55.070312 42.851562 55.9375 43.421875 56.679688 43.976562 C 57.421875 44.515625 58.652344 45.421875 59.421875 45.988281 L 60.828125 47 L 59.21875 46.933594 C 56.597656 46.8125 53.695312 47.3125 50.464844 48.421875 C 46.679688 49.71875 43.003906 51.703125 40.289062 53.894531 C 37.4375 56.203125 34.707031 57.785156 32.492188 58.394531 C 31.53125 58.648438 31.195312 58.675781 29.519531 58.609375 C 28.476562 58.566406 27.113281 58.433594 26.476562 58.3125 C 21.910156 57.40625 17.53125 54.894531 14.195312 51.246094 C 13.625 50.636719 13.15625 50.066406 13.128906 50 C 13.101562 49.917969 13.382812 49.867188 13.761719 49.867188 C 14.125 49.867188 15.152344 49.769531 16.03125 49.664062 C 20.921875 49.027344 25.476562 47.785156 30.195312 45.824219 C 37.652344 42.703125 44.964844 41.246094 50.464844 41.757812 Z M 62.21875 49.042969 C 63.976562 49.527344 66.464844 50.867188 66.179688 51.164062 C 66.113281 51.21875 64.988281 51.285156 63.664062 51.328125 C 59.976562 51.421875 57.734375 51.082031 54.746094 49.976562 C 53.667969 49.582031 53.273438 49.382812 53.421875 49.300781 C 53.53125 49.234375 54.273438 49.070312 55.085938 48.921875 C 57.125 48.554688 60.640625 48.609375 62.21875 49.042969 Z M 62.21875 49.042969 "/>
</g>
</svg>
