<?xml version="1.0" encoding="UTF-8"?>
<svg xmlns="http://www.w3.org/2000/svg" xmlns:xlink="http://www.w3.org/1999/xlink" width="75px" height="75px" viewBox="0 0 75 75" version="1.1">
<g id="surface1">
<path style=" stroke:none;fill-rule:nonzero;fill:rgb(78.823529%,12.54902%,44.313725%);fill-opacity:1;" d="M 27.484375 10.484375 C 26.210938 10.933594 25.097656 11.976562 24.675781 13.105469 L 24.445312 13.699219 L 22.679688 14.035156 C 19.667969 14.582031 17.367188 15.335938 15.046875 16.539062 C 7.605469 20.390625 2.871094 28.019531 1.28125 38.734375 C 0.859375 41.597656 0.644531 46.03125 0.800781 48.332031 C 0.976562 50.589844 0.917969 50.503906 3.03125 51.605469 C 5.117188 52.691406 7.390625 53.253906 10.5625 53.5 C 11.746094 53.601562 11.820312 53.617188 12.09375 54.050781 C 12.660156 54.90625 14.847656 57.265625 16.003906 58.25 C 20.289062 61.914062 24.953125 64.027344 29.992188 64.5625 C 32.898438 64.882812 34.492188 64.679688 36.984375 63.695312 C 39.371094 62.738281 42.066406 61.074219 44.441406 59.074219 C 46.769531 57.105469 52.589844 53.992188 53.894531 54.007812 C 54.328125 54.023438 56.585938 54.71875 58.628906 55.5 C 62.03125 56.785156 67.476562 57.222656 71.660156 56.539062 C 73.933594 56.164062 74.410156 55.902344 74.207031 55.09375 C 74.105469 54.71875 72.714844 53.472656 71.328125 52.53125 C 70.386719 51.894531 60.828125 44.945312 60.597656 44.726562 C 60.523438 44.667969 60.378906 43.917969 60.277344 43.046875 C 59.308594 35.390625 56.617188 28.597656 52.578125 23.589844 C 51.359375 22.082031 49.117188 19.96875 47.464844 18.78125 C 44.109375 16.378906 39.199219 14.496094 34.738281 13.902344 C 32.902344 13.65625 32.886719 13.65625 32.785156 13.222656 C 32.554688 12.195312 31.046875 10.761719 29.816406 10.429688 C 29.121094 10.238281 28.109375 10.253906 27.484375 10.484375 Z M 29.933594 12.367188 C 30.351562 12.585938 31.0625 13.28125 30.960938 13.382812 C 30.929688 13.410156 29.902344 13.46875 28.703125 13.496094 C 27.125 13.539062 26.484375 13.511719 26.484375 13.394531 C 26.484375 13.207031 27.136719 12.570312 27.570312 12.339844 C 27.992188 12.105469 29.46875 12.121094 29.933594 12.367188 Z M 33.988281 15.972656 C 36.765625 17.058594 39.707031 18.753906 41.863281 20.519531 C 43.238281 21.648438 45.816406 24.355469 46.800781 25.730469 C 49.710938 29.816406 51.621094 34.738281 52.476562 40.382812 C 52.589844 41.195312 52.695312 42.078125 52.695312 42.351562 L 52.695312 42.859375 L 50.925781 42.859375 C 45.484375 42.859375 38.402344 44.566406 30.875 47.695312 C 29.457031 48.289062 27.542969 49 26.632812 49.289062 C 24.589844 49.925781 21.027344 50.792969 20.03125 50.910156 L 19.292969 50.996094 L 18.972656 49.839844 C 17.871094 45.742188 17.582031 43.511719 17.597656 39.023438 C 17.597656 35.867188 17.65625 34.925781 17.914062 33.171875 C 19.003906 26.210938 21.476562 20.867188 25.503906 16.753906 L 26.921875 15.308594 L 29.773438 15.378906 L 32.640625 15.453125 Z M 23.722656 15.886719 C 23.605469 16.03125 23.171875 16.566406 22.738281 17.074219 C 16.292969 24.761719 13.964844 37.964844 16.988281 49.519531 C 17.175781 50.273438 17.394531 50.996094 17.4375 51.125 C 17.566406 51.460938 17.046875 51.515625 13.382812 51.632812 C 8.996094 51.765625 6.839844 51.417969 4.21875 50.15625 C 3.234375 49.679688 2.84375 49.402344 2.742188 49.144531 C 2.554688 48.664062 2.554688 44.132812 2.742188 41.992188 C 3.871094 28.84375 9.605469 20.070312 19.234375 16.796875 C 20.332031 16.421875 23.15625 15.710938 23.792969 15.65625 C 23.867188 15.640625 23.824219 15.757812 23.722656 15.886719 Z M 41.542969 17.609375 C 46.292969 19.535156 50.652344 23.328125 53.476562 27.960938 C 55.140625 30.726562 56.472656 34.027344 57.398438 37.71875 C 57.964844 39.980469 58.601562 43.527344 58.46875 43.640625 C 58.441406 43.671875 57.949219 43.585938 57.371094 43.4375 C 56.789062 43.28125 55.9375 43.121094 55.472656 43.0625 L 54.617188 42.976562 L 54.445312 41.425781 C 54.167969 39.007812 53.476562 35.78125 52.75 33.621094 C 51.984375 31.292969 50.1875 27.542969 48.957031 25.703125 C 47.03125 22.820312 44.238281 19.867188 41.777344 18.128906 C 41.066406 17.636719 40.515625 17.234375 40.5625 17.234375 C 40.601562 17.234375 41.039062 17.40625 41.542969 17.609375 Z M 54.066406 44.742188 C 55.90625 44.914062 57.761719 45.320312 58.660156 45.753906 C 59.003906 45.914062 59.933594 46.523438 60.726562 47.117188 C 61.523438 47.695312 62.839844 48.664062 63.667969 49.273438 L 65.171875 50.359375 L 63.449219 50.285156 C 60.640625 50.15625 57.527344 50.691406 54.070312 51.878906 C 50.015625 53.269531 46.078125 55.398438 43.167969 57.742188 C 40.113281 60.21875 37.1875 61.914062 34.8125 62.5625 C 33.785156 62.839844 33.421875 62.867188 31.628906 62.796875 C 30.511719 62.75 29.050781 62.605469 28.371094 62.476562 C 23.476562 61.507812 18.785156 58.8125 15.207031 54.90625 C 14.601562 54.253906 14.09375 53.644531 14.066406 53.574219 C 14.035156 53.484375 14.339844 53.429688 14.746094 53.429688 C 15.136719 53.429688 16.234375 53.328125 17.175781 53.210938 C 22.417969 52.53125 27.296875 51.199219 32.351562 49.097656 C 40.34375 45.753906 48.175781 44.191406 54.066406 44.742188 Z M 66.664062 52.546875 C 68.546875 53.066406 71.210938 54.5 70.90625 54.820312 C 70.835938 54.875 69.632812 54.949219 68.214844 54.992188 C 64.261719 55.09375 61.855469 54.734375 58.65625 53.546875 C 57.5 53.125 57.078125 52.910156 57.238281 52.820312 C 57.355469 52.75 58.152344 52.574219 59.019531 52.417969 C 61.207031 52.023438 64.972656 52.082031 66.664062 52.546875 Z M 66.664062 52.546875 "/>
</g>
</svg>
