<?xml version="1.0" encoding="utf-8"?>
<!-- Svg Vector Icons : http://www.onlinewebfonts.com/icon -->
<!DOCTYPE svg PUBLIC "-//W3C//DTD SVG 1.1//EN" "http://www.w3.org/Graphics/SVG/1.1/DTD/svg11.dtd">
<svg version="1.1" xmlns="http://www.w3.org/2000/svg" xmlns:xlink="http://www.w3.org/1999/xlink" x="0px" y="0px" viewBox="0 0 1000 1000" enable-background="new 0 0 1000 1000" xml:space="preserve">
<metadata> Svg Vector Icons : http://www.onlinewebfonts.com/icon </metadata>
<g><g transform="translate(0.000000,511.000000) scale(0.100000,-0.100000)"><path d="M3664.8,3711.9c-169.9-59.8-318.5-198.8-374.5-349.4l-30.9-79.2l-235.5-44.4c-401.5-73.4-708.5-173.7-1017.4-334C1014.3,2391.5,383,1374.1,170.7-54.4c-56-382.2-84.9-973-63.7-1279.9c23.2-301.2,15.4-289.6,297.3-436.3c278-144.8,581.1-220.1,1003.8-252.9c158.3-13.5,168-15.4,204.6-73.3c75.3-113.9,366.8-428.6,521.2-559.8c571.4-488.4,1193-770.3,1864.8-841.7c388-42.5,600.4-15.4,932.4,115.8c318.5,127.4,677.6,349.4,994.2,615.8c310.8,262.5,1086.8,677.6,1260.6,675.7c57.9-1.9,359.1-94.6,631.3-198.8c453.7-171.8,1179.5-229.7,1737.4-139c303.1,50.2,366.8,84.9,339.7,193c-13.5,50.2-198.8,216.2-384.1,341.7c-125.5,84.9-1399.6,1011.6-1430.5,1040.5c-9.7,7.7-29,108.1-42.5,223.9c-129.3,1021.2-488.4,1926.6-1027,2594.5c-162.2,200.8-461.4,482.6-681.4,640.9C5881,2926.2,5226.5,3177.2,4632,3256.3c-245.2,32.8-247.1,32.8-260.6,90.7c-30.9,137.1-231.7,328.2-395.7,372.6C3882.9,3744.7,3747.8,3742.8,3664.8,3711.9z M3991,3460.9c56-29,150.6-121.6,137.1-135.1c-3.9-3.9-140.9-11.6-301.2-15.4c-210.4-5.8-295.4-1.9-295.4,13.5c0,25.1,86.9,110,144.8,140.9C3732.4,3495.7,3929.3,3493.8,3991,3460.9z M4531.6,2980.3c370.6-144.8,762.5-370.6,1050.2-606.2c183.4-150.6,527-511.6,658.3-695c388-544.4,642.8-1200.7,756.7-1953.6c15.4-108.1,29-225.9,29-262.5v-67.6h-235.5c-725.8,0-1669.8-227.8-2673.7-644.8c-189.2-79.1-444-173.7-565.6-212.4c-272.2-84.9-747.1-200.8-880.3-216.2l-98.5-11.6l-42.5,154.4C2383-988.8,2344.4-691.5,2346.3-93c0,420.8,7.7,546.3,42.5,779.9c144.8,928.5,474.9,1640.9,1011.6,2189.1l189.2,193l380.3-9.7l382.2-9.6L4531.6,2980.3z M3162.9,2991.8c-15.4-19.3-73.4-90.7-131.3-158.3C2172.6,1808.5,1861.8,47.9,2265.2-1492.6c25.1-100.4,54.1-196.9,59.8-214.3c17.4-44.4-52.1-52.1-540.5-67.6c-584.9-17.4-872.6,29-1222,196.9c-131.3,63.7-183.4,100.4-196.9,135.1c-25.1,63.7-25.1,667.9,0,953.7c150.6,1752.8,915,2922.7,2198.8,3359c146.7,50.2,523.2,144.8,608.1,152.5C3182.2,3024.7,3176.4,3009.2,3162.9,2991.8z M5539.3,2762.1c633.2-256.7,1214.3-762.5,1590.7-1380.3c222-368.7,399.6-808.9,523.1-1301.1c75.3-301.2,160.2-774.1,142.9-789.6c-3.9-3.9-69.5,7.7-146.7,27c-77.2,21.2-191.1,42.5-252.9,50.2L7282.5-620l-23.2,206.5C7222.6-91.1,7130,339.4,7033.5,627c-102.3,310.8-341.7,810.8-505.8,1056c-256.7,384.2-629.3,778-957.5,1009.6c-94.6,65.6-167.9,119.7-162.1,119.7C5413.8,2812.3,5471.7,2789.1,5539.3,2762.1z M7209.1-855.5c245.2-23.2,492.3-77.2,612-135.1c46.3-21.2,169.9-102.3,276-181.5c106.2-77.2,281.8-206.6,391.9-287.6l200.8-144.8l-229.7,9.6c-374.5,17.4-789.6-54.1-1250.9-212.3c-540.5-185.3-1065.6-469.1-1453.6-781.8c-407.3-330.1-797.3-556-1113.9-642.8c-137.1-36.7-185.3-40.5-424.7-30.9c-148.7,5.8-343.6,25.1-434.4,42.5c-652.5,129.3-1278,488.4-1754.8,1009.6c-81.1,86.9-148.6,168-152.5,177.6c-3.9,11.6,36.7,19.3,90.7,19.3c52.1,0,198.8,13.5,324.3,29c698.8,90.7,1349.4,268.3,2023.1,548.2C5379.1-990.7,6423.4-782.2,7209.1-855.5z M8888.6-1896.1c251-69.5,606.2-260.6,565.6-303.1c-9.6-7.7-169.9-17.4-359.1-23.2c-527-13.5-847.5,34.7-1274.1,193c-154.4,56-210.4,84.9-189.2,96.5c15.4,9.6,121.6,32.8,237.4,54C8160.8-1826.6,8662.8-1834.3,8888.6-1896.1z" fill="#C92071"/></g></g>
</svg>